<?xml version="1.0" encoding="utf-8"?>
<!-- Generator: Adobe Illustrator 24.3.0, SVG Export Plug-In . SVG Version: 6.00 Build 0)  -->
<svg version="1.1" id="Calque_1" xmlns="http://www.w3.org/2000/svg" xmlns:xlink="http://www.w3.org/1999/xlink" x="0px" y="0px"
	 viewBox="0 0 2071.32 969.89" style="enable-background:new 0 0 2071.32 969.89;" xml:space="preserve">
<style type="text/css">
	.st0{fill:#972D8D;}
	.st1{fill:#18202A;}
	.st2{font-family:'ArmstrongExtrabold';}
	.st3{font-size:240.6858px;}
</style>
<path class="st0" d="M273.46,675.49V499.2c0,0,423.29,0,448.19,0c92.63-106.57,1-448.19-243.02-448.19c-106.45,0-435.24,0-435.24,0
	l79.68,113.54c0,0,300.78,0,350.58,0s194.21,75.69,173.3,237.04c-50.79,0-479.06,0-479.06,0v273.89H273.46z"/>
<path class="st0" d="M186.56,234.52c29.88,0,292.82,0,310.74,0c17.93,0,73.95,32.12,75.45,97.11c-25.4,0-301.78,0-301.78,0
	L186.56,234.52z"/>
<path class="st1" d="M467.42,569.92c17.18,0,165.08,0,165.08,0l84.41,105.57H563.78L467.42,569.92z"/>
<text transform="matrix(1 0 0 1 833.8606 675.4893)" class="st0 st2 st3">RATING</text>
<polygon class="st1" points="273.46,675.49 273.46,499.2 721.65,499.2 646.95,401.6 167.88,401.6 167.88,675.49 "/>
<g>
	<text transform="matrix(1 0 0 1 163.2565 919.586)" class="st1 st2 st3">MOVIES</text>
</g>
</svg>
