<?xml version="1.0" standalone="no"?>
<!DOCTYPE svg PUBLIC "-//W3C//DTD SVG 20010904//EN"
 "http://www.w3.org/TR/2001/REC-SVG-20010904/DTD/svg10.dtd">
<svg version="1.0" xmlns="http://www.w3.org/2000/svg"
 width="158.000000pt" height="158.000000pt" viewBox="0 0 158.000000 158.000000"
 preserveAspectRatio="xMidYMid meet">
<metadata>
Created by potrace 1.14, written by Peter Selinger 2001-2017
</metadata>
<g transform="translate(0.000000,158.000000) scale(0.100000,-0.100000)"
fill="#000000" stroke="none">
<path d="M58 1472 l-58 -3 87 -117 c48 -64 89 -119 91 -122 2 -2 184 -5 405
-5 l402 -1 75 -35 c169 -80 270 -237 270 -420 l0 -66 -507 -1 c-280 0 -518 -1
-531 -1 l-22 -1 2 -302 3 -302 108 -1 c59 -1 112 2 118 5 6 4 11 80 12 196 l2
189 480 2 c264 2 487 3 496 3 9 0 24 21 38 51 101 231 10 571 -206 768 -73 67
-189 130 -278 150 -46 11 -834 21 -987 13z"/>
<path d="M330 1059 c0 -5 123 -152 159 -189 12 -12 66 -15 348 -15 377 0 352
-7 307 82 -25 51 -92 122 -117 124 -47 5 -697 3 -697 -2z"/>
<path d="M950 322 c0 -5 55 -67 154 -177 l46 -49 165 -1 c91 0 165 2 165 6 0
11 -110 149 -156 195 l-31 32 -172 0 c-94 0 -171 -3 -171 -6z"/>
</g>
</svg>
